<?xml version="1.0" standalone="no"?>
<!DOCTYPE svg PUBLIC "-//W3C//DTD SVG 20010904//EN"
 "http://www.w3.org/TR/2001/REC-SVG-20010904/DTD/svg10.dtd">
<svg version="1.0" xmlns="http://www.w3.org/2000/svg"
 width="520.000000pt" height="520.000000pt" viewBox="0 0 520.000000 520.000000"
 preserveAspectRatio="xMidYMid meet">
<metadata>
Created by potrace 1.14, written by Peter Selinger 2001-2017
</metadata>
<g transform="translate(0.000000,520.000000) scale(0.100000,-0.100000)"
fill="#000000" stroke="none">
<path d="M2820 3920 c-147 -85 -434 -272 -570 -373 -406 -300 -676 -588 -781
-834 -32 -74 -34 -84 -34 -198 0 -118 1 -121 34 -183 60 -111 159 -178 326
-223 63 -16 120 -22 267 -26 l187 -6 -19 -25 c-43 -54 -16 -168 49 -206 37
-21 108 -23 145 -4 13 7 99 80 189 161 262 235 262 248 0 483 -90 82 -181 157
-201 167 -92 44 -202 -29 -202 -133 0 -47 25 -109 48 -118 63 -24 -253 -30
-362 -7 -95 20 -152 49 -164 85 -36 103 125 341 390 577 220 196 460 367 792
568 167 101 180 111 198 153 43 96 -18 198 -123 209 -40 4 -55 -2 -169 -67z"/>
<path d="M2782 3375 c-37 -16 -335 -281 -369 -328 -29 -40 -31 -109 -4 -153
24 -39 336 -323 369 -335 13 -5 42 -9 65 -9 116 0 184 136 116 231 l-19 27 95
7 c242 18 445 -40 445 -126 0 -77 -84 -224 -212 -369 -188 -215 -581 -515
-1001 -765 -162 -96 -187 -123 -187 -195 0 -88 62 -150 152 -150 37 0 66 14
202 95 650 391 1113 795 1269 1110 59 119 72 170 71 275 0 119 -27 186 -107
263 -117 114 -275 160 -559 161 -161 0 -176 2 -163 16 51 56 54 146 7 202 -46
54 -108 70 -170 43z"/>
</g>
</svg>
